<?xml version="1.0" standalone="no"?><!DOCTYPE svg PUBLIC "-//W3C//DTD SVG 1.1//EN" "http://www.w3.org/Graphics/SVG/1.1/DTD/svg11.dtd"><svg t="1679575044522" class="icon" viewBox="0 0 1024 1024" version="1.1" xmlns="http://www.w3.org/2000/svg" p-id="1034" xmlns:xlink="http://www.w3.org/1999/xlink" width="150" height="150"><path d="M98 836.39h829.99v91.91H98zM234.24 768.26c-37.59 0-68.18-36.69-68.18-81.8V399.07c0-45.1 30.59-81.78 68.18-81.78 37.61 0 68.19 36.69 68.19 81.78v287.39c0 45.11-30.59 81.8-68.19 81.8z m0-424.52c-25.44 0-46.13 24.82-46.13 55.34v287.39c0 30.52 20.69 55.35 46.13 55.35s46.14-24.83 46.14-55.35v-287.4c0-30.51-20.7-55.33-46.14-55.33zM494.75 768.26c-37.59 0-68.18-36.69-68.18-81.8V180.01c0-45.1 30.59-81.78 68.18-81.78 37.61 0 68.19 36.69 68.19 81.78v506.45c0 45.11-30.58 81.8-68.19 81.8z m0-643.58c-25.44 0-46.13 24.82-46.13 55.34v506.45c0 30.52 20.69 55.35 46.13 55.35s46.14-24.83 46.14-55.35V180.01c0-30.51-20.7-55.33-46.14-55.33zM755.27 768.26c-37.61 0-68.19-36.69-68.19-81.8V399.07c0-45.1 30.59-81.78 68.19-81.78 37.59 0 68.18 36.69 68.18 81.78v287.39c0.01 45.11-30.58 81.8-68.18 81.8z m0-424.52c-25.44 0-46.14 24.82-46.14 55.34v287.39c0 30.52 20.7 55.35 46.14 55.35s46.13-24.83 46.13-55.35v-287.4c0.01-30.51-20.69-55.33-46.13-55.33z" fill="#040000" p-id="1035"></path></svg>