<?xml version="1.0" standalone="no"?><!DOCTYPE svg PUBLIC "-//W3C//DTD SVG 1.1//EN" "http://www.w3.org/Graphics/SVG/1.1/DTD/svg11.dtd"><svg t="1679495708713" class="icon" viewBox="0 0 1024 1024" version="1.1" xmlns="http://www.w3.org/2000/svg" p-id="1786" xmlns:xlink="http://www.w3.org/1999/xlink" width="60" height="60"><path d="M824.064 496.64s-126.208 5.888-152.832-25.856c-55.04 49.152-264.448 33.024-320.768 5.12-34.304 23.808-153.088 18.176-153.088 18.176h-61.44v381.44c0 52.992 48.128 96 107.52 96h534.272c59.392 0 107.52-43.008 107.52-96V496.64h-61.184z m-214.272 254.208H344.832c-16.896 0-30.72-13.824-30.72-30.72s13.824-30.72 30.72-30.72h264.96c16.896 0 30.72 13.824 30.72 30.72s-13.824 30.72-30.72 30.72zM961.792 253.44l-57.088-132.096c-17.92-41.472-58.624-68.352-103.936-68.352h-565.76c-43.008 0-81.92 23.808-101.12 62.464l-67.072 133.12c-21.248 42.24-19.2 91.904 5.12 133.12 23.296 39.68 64 64.512 108.8 66.304h57.088c38.4 0 74.24-15.36 101.632-43.52 4.352-4.352 8.192-8.96 11.776-13.824 3.584 4.864 7.424 9.216 11.776 13.568 27.392 28.16 63.488 43.776 102.144 43.776h94.464c38.144 0 73.984-15.36 101.12-43.264 3.84-4.096 7.68-8.192 11.008-12.8 3.328 4.352 6.912 8.448 10.752 12.544 27.136 28.16 63.232 43.52 101.632 43.52h58.88c44.288-1.792 83.712-25.088 108.032-63.488 25.088-39.68 28.928-88.576 10.752-131.072z m-318.464-0.768H378.368c-16.896 0-30.72-13.824-30.72-30.72s13.824-30.72 30.72-30.72h264.96c16.896 0 30.72 13.824 30.72 30.72s-13.824 30.72-30.72 30.72z" fill="#5396FF" p-id="1787"></path></svg>